<svg width="30" height="30" viewBox="0 0 30 30" fill="none" xmlns="http://www.w3.org/2000/svg">
<path d="M27.5 15C27.5 10.2863 27.5 7.92875 26.035 6.465C24.57 5.00125 22.2137 5 17.5 5H12.5C7.78625 5 5.42875 5 3.965 6.465C2.50125 7.93 2.5 10.2863 2.5 15C2.5 19.7137 2.5 22.0712 3.965 23.535C5.43 24.9987 7.78625 25 12.5 25H17.5C22.2137 25 24.5712 25 26.035 23.535C26.8525 22.7187 27.2138 21.625 27.3725 20M12.5 20H7.5M17.5 20H15.625M2.5 12.5H8.75M27.5 12.5H13.75" stroke="#141B34" stroke-opacity="0.8" stroke-width="2" stroke-linecap="round"/>
</svg>
