<svg width="50" height="50" viewBox="0 0 50 50" fill="none" xmlns="http://www.w3.org/2000/svg">
<circle opacity="0.1" cx="25" cy="25" r="23.8095" fill="#FFC727"/>
<circle opacity="0.1" cx="25" cy="25" r="25" fill="#FFC727"/>
<circle opacity="0.1" cx="24.4048" cy="24.4056" r="20.8333" fill="#FFC727"/>
<g clip-path="url(#clip0_462_563)">
<path d="M39.2857 24.9996C39.2857 32.8889 32.8893 39.2853 25 39.2853C17.1107 39.2853 10.7143 32.8889 10.7143 24.9996C10.7143 22.8258 11.1988 20.7674 12.0679 18.9222C11.5226 20.2819 11.2382 21.7322 11.2298 23.1972C11.2298 29.6663 16.4524 30.602 18.675 30.5817C22.0524 30.5508 26.0012 28.896 29.3274 25.8305L28.7667 28.9853C28.6405 29.7055 29.1119 30.3401 29.8333 30.3448H30.131C30.8774 30.3448 31.4083 29.7365 31.5429 28.9841L32.7405 22.2436C32.8833 21.496 32.3917 20.8865 31.6441 20.8865H24.8905C24.1405 20.8865 23.4536 21.2841 23.3191 22.0389L23.2667 22.3424C23.1595 23.0603 23.6595 23.6008 24.375 23.6008H27.8988L27.7298 23.7662C25.3012 26.0639 22.306 27.3234 19.825 27.3234C17.3488 27.3234 14.575 25.7603 14.575 22.2412C14.575 14.946 21.4167 10.7139 25 10.7139C32.8738 10.7139 39.2857 17.1103 39.2857 24.9996Z" fill="#FFC727"/>
</g>
<defs>
<clipPath id="clip0_462_563">
<rect width="28.5714" height="28.5714" fill="white" transform="translate(10.7143 10.7139)"/>
</clipPath>
</defs>
</svg>
