<svg width="80" height="80" viewBox="0 0 80 80" fill="none" xmlns="http://www.w3.org/2000/svg">
<circle opacity="0.1" cx="40" cy="40" r="40" fill="#0B0B0B"/>
<path d="M39.1667 29.9748V28.0764C39.1667 27.8398 39.2461 27.642 39.405 27.4831C39.5639 27.3242 39.7622 27.2442 40 27.2431C40.2378 27.242 40.4361 27.322 40.595 27.4831C40.7539 27.6442 40.8333 27.842 40.8333 28.0764V29.9548C41.71 30.0359 42.5106 30.3187 43.235 30.8031C43.9606 31.2864 44.5478 31.9014 44.9967 32.6481C45.1311 32.8448 45.1778 33.0542 45.1367 33.2764C45.0944 33.4998 44.975 33.6792 44.7783 33.8148C44.5828 33.9481 44.3733 33.9942 44.15 33.9531C43.9267 33.912 43.7472 33.7931 43.6117 33.5964C43.245 32.9742 42.7461 32.4781 42.115 32.1081C41.485 31.737 40.8078 31.5514 40.0833 31.5514C39.6278 31.5514 39.185 31.6253 38.755 31.7731C38.325 31.9209 37.9283 32.1281 37.565 32.3948C37.355 32.5248 37.1472 32.5598 36.9417 32.4998C36.735 32.4398 36.5667 32.3053 36.4367 32.0964C36.3067 31.8875 36.2656 31.6798 36.3133 31.4731C36.3611 31.2664 36.4906 31.0981 36.7017 30.9681C37.0517 30.6859 37.4356 30.4637 37.8533 30.3014C38.2711 30.1392 38.7089 30.0303 39.1667 29.9748ZM51.6417 53.9998L45.27 47.6281C44.81 48.2803 44.1656 48.8292 43.3367 49.2748C42.5078 49.7192 41.6733 49.9481 40.8333 49.9614V51.8598C40.8333 52.0964 40.7539 52.2942 40.595 52.4531C40.4361 52.6131 40.2378 52.6931 40 52.6931C39.7622 52.6931 39.5639 52.6131 39.405 52.4531C39.2461 52.2931 39.1667 52.0953 39.1667 51.8598V49.8781C37.9444 49.637 36.9444 49.157 36.1667 48.4381C35.3889 47.7192 34.7544 46.7781 34.2633 45.6148C34.1689 45.3848 34.1539 45.1509 34.2183 44.9131C34.2828 44.6753 34.43 44.5098 34.66 44.4164C34.8767 44.3231 35.0961 44.3275 35.3183 44.4298C35.5417 44.532 35.7039 44.6987 35.805 44.9298C36.1994 45.8998 36.7722 46.7098 37.5233 47.3598C38.2756 48.0087 39.2122 48.3331 40.3333 48.3331C41.1333 48.3331 41.8533 48.1587 42.4933 47.8098C43.1344 47.4598 43.66 46.9998 44.07 46.4298L26 28.3598C25.8444 28.2031 25.7611 28.0114 25.75 27.7848C25.7389 27.5581 25.8222 27.3564 26 27.1798C26.1778 27.0031 26.3744 26.9142 26.59 26.9131C26.8056 26.912 27.0022 27.0009 27.18 27.1798L52.82 52.8198C52.9756 52.9753 53.0589 53.167 53.07 53.3948C53.0811 53.6225 52.9978 53.8242 52.82 53.9998C52.6422 54.1753 52.4461 54.2642 52.2317 54.2664C52.0172 54.2687 51.8206 54.1798 51.6417 53.9998Z" fill="#0B0B0B"/>
</svg>
