<svg width="40" height="40" viewBox="0 0 40 40" fill="none" xmlns="http://www.w3.org/2000/svg">
<circle opacity="0.5" cx="20" cy="20" r="20" fill="#E0E0E0"/>
<path d="M11 15H14" stroke="#141B34" stroke-width="1.5" stroke-linecap="round" stroke-linejoin="round"/>
<path d="M11 25H17" stroke="#141B34" stroke-width="1.5" stroke-linecap="round" stroke-linejoin="round"/>
<path d="M26 25H29" stroke="#141B34" stroke-width="1.5" stroke-linecap="round" stroke-linejoin="round"/>
<path d="M23 15H29" stroke="#141B34" stroke-width="1.5" stroke-linecap="round" stroke-linejoin="round"/>
<path d="M14 15C14 14.0681 14 13.6022 14.1522 13.2346C14.3552 12.7446 14.7446 12.3552 15.2346 12.1522C15.6022 12 16.0681 12 17 12C17.9319 12 18.3978 12 18.7654 12.1522C19.2554 12.3552 19.6448 12.7446 19.8478 13.2346C20 13.6022 20 14.0681 20 15C20 15.9319 20 16.3978 19.8478 16.7654C19.6448 17.2554 19.2554 17.6448 18.7654 17.8478C18.3978 18 17.9319 18 17 18C16.0681 18 15.6022 18 15.2346 17.8478C14.7446 17.6448 14.3552 17.2554 14.1522 16.7654C14 16.3978 14 15.9319 14 15Z" stroke="#141B34" stroke-width="1.5"/>
<path d="M20 25C20 24.0681 20 23.6022 20.1522 23.2346C20.3552 22.7446 20.7446 22.3552 21.2346 22.1522C21.6022 22 22.0681 22 23 22C23.9319 22 24.3978 22 24.7654 22.1522C25.2554 22.3552 25.6448 22.7446 25.8478 23.2346C26 23.6022 26 24.0681 26 25C26 25.9319 26 26.3978 25.8478 26.7654C25.6448 27.2554 25.2554 27.6448 24.7654 27.8478C24.3978 28 23.9319 28 23 28C22.0681 28 21.6022 28 21.2346 27.8478C20.7446 27.6448 20.3552 27.2554 20.1522 26.7654C20 26.3978 20 25.9319 20 25Z" stroke="#141B34" stroke-width="1.5"/>
</svg>
